<?xml version="1.0" standalone="no"?>
<!DOCTYPE svg PUBLIC "-//W3C//DTD SVG 20010904//EN"
 "http://www.w3.org/TR/2001/REC-SVG-20010904/DTD/svg10.dtd">
<svg version="1.0" xmlns="http://www.w3.org/2000/svg"
 width="960.000000pt" height="960.000000pt" viewBox="0 0 960.000000 960.000000"
 preserveAspectRatio="xMidYMid meet">
<metadata>
Created by potrace 1.11, written by Peter Selinger 2001-2013
</metadata>
<g transform="translate(0.000000,960.000000) scale(0.100000,-0.100000)"
fill="#000000" stroke="none">
<path d="M3190 4804 c-393 -1016 -718 -1855 -722 -1865 -7 -18 4 -19 285 -19
l292 0 175 465 175 465 784 -3 784 -2 175 -462 176 -463 303 0 c167 0 303 2
303 4 0 1 -322 840 -714 1862 l-715 1859 -293 3 -293 2 -715 -1846z m1138 756
c49 -151 164 -471 256 -711 91 -240 166 -439 166 -443 0 -3 -257 -6 -571 -6
-465 0 -570 2 -566 13 170 444 351 942 442 1217 65 195 120 359 123 365 3 5
18 -29 33 -75 15 -47 67 -209 117 -360z"/>
</g>
</svg>
