<?xml version="1.0" standalone="no"?>
<!DOCTYPE svg PUBLIC "-//W3C//DTD SVG 20010904//EN"
 "http://www.w3.org/TR/2001/REC-SVG-20010904/DTD/svg10.dtd">
<svg version="1.0" xmlns="http://www.w3.org/2000/svg"
 width="960.000000pt" height="960.000000pt" viewBox="0 0 960.000000 960.000000"
 preserveAspectRatio="xMidYMid meet">
<metadata>
Created by potrace 1.11, written by Peter Selinger 2001-2013
</metadata>
<g transform="translate(0.000000,960.000000) scale(0.100000,-0.100000)"
fill="#000000" stroke="none">
<path d="M3892 6583 c-8 -23 -1411 -3646 -1429 -3690 -4 -10 58 -13 289 -13
l293 0 176 463 175 462 783 0 783 0 149 -395 c82 -217 161 -425 175 -462 l26
-68 304 0 c167 0 304 3 304 8 0 4 -321 842 -713 1862 l-713 1855 -296 3 -296
2 -10 -27z m428 -1043 c65 -195 188 -539 274 -764 86 -225 155 -411 153 -413
-2 -2 -258 -2 -570 -1 l-565 3 150 395 c82 217 208 571 279 785 71 215 132
397 135 405 5 10 10 4 17 -20 6 -19 63 -195 127 -390z"/>
<path d="M6573 3610 c-183 -39 -299 -243 -265 -471 30 -209 151 -313 362 -312
114 1 182 27 243 92 79 84 117 186 117 310 0 173 -69 301 -190 355 -66 30
-192 42 -267 26z"/>
</g>
</svg>
